<?xml version="1.0" encoding="UTF-8" standalone="no" ?>
<svg version="1.0" xmlns="http://www.w3.org/2000/svg" width="24" height="24" viewBox="0 0 400 600">
    <path transform="translate(10,587) scale(0.4,-0.4)" d="M967,302
    C956,196,914,144,840,144
    C730,144,680,268,636,474L565,791
    C515,1017,478,1165,454,1236
    C409,1374,342,1433,268,1433
    C149,1433,73,1295,69,1109H105
    C114,1253,194,1287,252,1287
    C333,1287,404,1200,453,936
    L25,14H214L512,690L598,302
    C630,164,664,79,702,47
    C741,15,781,0,823,0
    C895,0,1003,48,1003,302Z"/>
</svg>
